<?xml version="1.0" standalone="no"?>
<!DOCTYPE svg PUBLIC "-//W3C//DTD SVG 20010904//EN"
 "http://www.w3.org/TR/2001/REC-SVG-20010904/DTD/svg10.dtd">
<svg version="1.0" xmlns="http://www.w3.org/2000/svg"
 width="512.000000pt" height="512.000000pt" viewBox="0 0 512.000000 512.000000"
 preserveAspectRatio="xMidYMid meet">
<metadata>
Created by potrace 1.16, written by Peter Selinger 2001-2019
</metadata>
<g transform="translate(0.000000,512.000000) scale(0.100000,-0.100000)"
fill="#000000" stroke="none">
<path d="M835 5091 c-106 -36 -197 -115 -247 -214 -41 -82 -154 -390 -168
-461 -20 -96 -6 -170 57 -313 4 -10 -42 -13 -214 -13 -217 0 -220 0 -241 -23
-22 -23 -22 -28 -22 -345 0 -309 1 -323 20 -342 29 -29 90 -27 118 3 21 23 22
30 22 280 l0 257 278 0 277 0 337 -93 337 -93 -48 -74 c-82 -129 -165 -279
-255 -457 l-86 -173 -420 0 -420 0 0 61 c0 33 -4 69 -10 79 -23 43 -117 43
-140 0 -6 -10 -10 -73 -10 -139 0 -167 -8 -161 200 -161 l160 0 0 -1418 c0
-1362 1 -1420 18 -1435 17 -16 183 -17 2184 -17 2085 0 2166 1 2181 18 15 16
17 51 17 285 0 254 -1 268 -20 287 -28 28 -93 27 -120 -2 -19 -20 -20 -34 -20
-225 l0 -203 -780 0 -780 0 1 1318 1 1317 53 -110 c170 -349 323 -835 371
-1180 7 -56 19 -84 43 -102 20 -15 66 -17 91 -3 23 12 174 227 260 370 35 58
67 109 71 114 10 12 180 -111 349 -251 148 -124 172 -133 225 -91 27 21 27 23
21 96 -20 235 -145 716 -280 1076 -31 82 -56 150 -56 152 0 2 92 4 205 4 l205
0 0 -1026 c0 -650 4 -1032 10 -1044 23 -43 117 -43 140 0 6 12 10 394 10 1044
l0 1026 160 0 c147 0 162 2 180 20 20 20 20 33 20 588 l0 569 -23 21 c-22 21
-31 22 -241 22 -171 0 -217 3 -213 13 63 143 77 217 57 313 -15 71 -127 379
-169 462 -51 101 -151 185 -259 217 -62 19 -185 19 -251 -1 -29 -8 -279 -123
-556 -254 l-503 -239 -43 22 c-42 21 -55 22 -359 22 -304 0 -317 -1 -359 -22
l-43 -22 -503 239 c-276 131 -526 245 -555 254 -71 21 -200 20 -265 -3z m365
-225 c626 -291 850 -402 844 -416 -3 -8 -9 -45 -11 -82 -3 -38 -6 -68 -7 -68
-1 0 -85 42 -186 93 -286 144 -513 220 -702 236 -173 13 -290 -19 -373 -104
-39 -41 -45 -52 -45 -90 0 -89 87 -111 159 -41 20 18 50 41 67 49 149 75 520
-32 965 -279 l119 -66 0 -182 0 -183 -632 174 c-419 116 -650 184 -683 202
-86 47 -142 154 -133 251 6 58 141 423 175 472 32 47 104 96 152 104 20 3 41
7 46 9 29 11 106 -14 245 -79z m3040 62 c43 -16 97 -58 124 -96 33 -49 168
-415 174 -472 9 -97 -47 -204 -133 -251 -33 -18 -264 -86 -683 -202 l-632
-174 2 186 3 186 110 62 c249 141 544 258 730 289 116 20 210 10 254 -26 114
-92 135 -97 182 -51 38 38 37 69 -4 123 -161 211 -573 165 -1133 -128 l-141
-73 -6 67 c-2 37 -8 74 -11 82 -5 12 102 66 479 245 267 127 504 235 527 242
43 12 112 8 158 -9z m-1387 -461 c16 -10 37 -32 47 -50 19 -30 20 -53 20 -397
0 -497 29 -460 -360 -460 -289 0 -304 3 -340 63 -19 30 -20 53 -20 395 0 384
1 393 48 435 35 32 73 36 327 34 223 -2 254 -4 278 -20z m2107 -992 l0 -445
-420 0 -420 0 -86 173 c-90 178 -173 328 -255 457 l-48 74 332 92 332 93 283
0 282 1 0 -445z m-2887 58 c23 -40 74 -85 122 -109 l54 -26 -71 -106 c-299
-445 -520 -961 -637 -1486 l-27 -119 -61 94 c-33 52 -84 135 -112 185 -65 115
-83 134 -124 134 -36 0 -158 -77 -318 -201 -46 -36 -89 -68 -95 -72 -6 -4 3
57 22 140 134 581 344 1093 656 1594 l78 126 253 -69 c149 -42 255 -76 260
-85z m1609 -43 c288 -480 499 -1006 618 -1547 15 -68 22 -119 16 -115 -6 3
-49 35 -95 71 -160 124 -282 201 -318 201 -41 0 -59 -19 -124 -134 -28 -50
-79 -133 -112 -185 l-61 -94 -27 119 c-117 525 -338 1041 -637 1486 l-71 106
54 26 c48 24 99 69 122 109 5 9 110 43 258 84 l250 70 17 -21 c9 -12 59 -91
110 -176z m-941 -207 c42 -60 97 -141 122 -180 l47 -73 -350 0 -350 0 47 73
c25 39 80 120 122 180 l75 107 106 0 106 0 75 -107z m-1811 -417 c0 -2 -25
-70 -56 -152 -135 -360 -260 -841 -280 -1076 -6 -73 -6 -75 21 -96 30 -24 65
-28 96 -11 11 5 75 56 142 112 156 131 326 252 336 241 4 -5 36 -56 71 -114
86 -143 237 -358 260 -370 25 -14 71 -12 91 3 24 18 36 46 43 102 48 345 201
831 371 1180 l53 110 1 -1317 1 -1318 -780 0 -780 0 0 1355 0 1355 205 0 c113
0 205 -2 205 -4z m1940 -1351 l0 -1355 -310 0 -310 0 0 1355 0 1355 310 0 310
0 0 -1355z"/>
</g>
</svg>
