<?xml version="1.0" standalone="no"?>
<!DOCTYPE svg PUBLIC "-//W3C//DTD SVG 20010904//EN"
 "http://www.w3.org/TR/2001/REC-SVG-20010904/DTD/svg10.dtd">
<svg version="1.0" xmlns="http://www.w3.org/2000/svg"
 width="512.000000pt" height="512.000000pt" viewBox="0 0 512.000000 512.000000"
 preserveAspectRatio="xMidYMid meet">
<metadata>
Created by potrace 1.16, written by Peter Selinger 2001-2019
</metadata>
<g transform="translate(0.000000,512.000000) scale(0.100000,-0.100000)"
fill="#000000" stroke="none">
<path d="M717 4766 c-94 -34 -165 -107 -192 -199 -9 -31 -15 -92 -15 -159 l0
-108 -90 0 c-158 0 -239 -27 -319 -108 -70 -71 -94 -129 -99 -237 -4 -81 -2
-92 16 -108 26 -24 87 -25 111 -3 12 11 21 38 25 83 16 154 88 213 261 213
l95 0 0 -115 c0 -92 4 -125 21 -171 94 -250 445 -261 556 -17 21 46 26 75 31
179 l5 124 183 0 184 0 0 -89 c0 -159 24 -237 98 -308 144 -140 390 -97 479
85 25 50 28 69 31 184 l4 128 189 0 189 0 0 -120 c0 -144 18 -204 81 -268 57
-58 120 -86 201 -90 98 -6 159 17 229 87 75 75 89 119 89 273 l0 118 190 0
190 0 0 -115 c0 -92 4 -125 21 -171 94 -250 445 -261 556 -17 21 46 26 75 31
179 l5 124 92 0 c82 0 99 -3 146 -28 43 -22 59 -38 81 -81 l28 -53 0 -279 0
-279 -2135 0 -2135 0 0 110 c0 97 -2 112 -20 130 -27 27 -83 27 -110 0 -20
-20 -20 -29 -18 -1383 l3 -1362 25 -50 c30 -60 103 -136 156 -163 83 -42 92
-42 1485 -42 l1339 0 69 -52 c251 -191 525 -278 835 -265 142 6 235 22 355 63
141 49 337 159 361 204 17 32 11 60 -20 91 -36 36 -58 33 -145 -21 -353 -219
-754 -240 -1110 -57 -235 122 -434 341 -525 578 -163 427 -58 891 271 1204
219 208 506 316 804 302 452 -22 839 -307 995 -734 80 -220 82 -508 4 -725
-38 -104 -94 -212 -153 -293 -35 -48 -51 -79 -51 -100 0 -59 50 -96 104 -76
59 23 197 254 255 427 84 250 82 552 -4 809 -72 217 -233 445 -406 577 l-69
53 0 671 c0 583 -2 677 -16 724 -31 104 -93 176 -194 223 -58 28 -77 31 -181
35 l-116 4 -6 123 c-6 146 -28 206 -98 273 -118 114 -320 107 -431 -16 -58
-64 -78 -133 -78 -267 l0 -115 -189 0 -189 0 -4 133 c-3 149 -19 195 -87 261
-64 62 -115 81 -211 81 -100 0 -153 -21 -219 -87 -63 -64 -81 -124 -81 -268
l0 -120 -189 0 -189 0 -4 128 c-3 115 -6 134 -31 185 -111 226 -439 220 -545
-11 -21 -47 -26 -74 -30 -179 l-5 -123 -182 0 -182 0 -5 124 c-7 146 -29 208
-98 275 -74 72 -206 101 -303 67z m163 -165 c19 -10 44 -34 55 -52 19 -32 20
-52 20 -329 0 -329 -2 -338 -68 -379 -70 -43 -162 -15 -199 59 -16 31 -18 69
-18 320 0 251 2 289 18 320 36 73 121 100 192 61z m991 -4 c66 -44 69 -59 69
-377 0 -251 -2 -289 -18 -320 -54 -107 -203 -106 -252 3 -18 38 -20 67 -20
317 0 266 1 277 23 320 38 77 129 103 198 57z m977 3 c18 -11 41 -34 52 -52
19 -31 20 -51 20 -328 0 -277 -1 -297 -20 -328 -58 -95 -193 -94 -245 3 -14
26 -16 69 -13 336 3 290 4 308 23 329 53 60 124 76 183 40z m978 4 c18 -9 44
-33 56 -53 23 -35 23 -42 23 -331 0 -277 -1 -297 -20 -329 -40 -68 -132 -91
-196 -48 -66 44 -69 59 -69 377 0 251 2 289 18 320 35 71 116 98 188 64z
m-2946 -1699 l0 -355 -365 0 -365 0 0 355 0 355 365 0 365 0 0 -355z m890 0
l0 -355 -365 0 -365 0 0 355 0 355 365 0 365 0 0 -355z m880 0 l0 -355 -365 0
-365 0 0 355 0 355 365 0 365 0 0 -355z m890 141 l0 -213 -92 -33 c-123 -42
-248 -109 -352 -187 l-84 -63 -101 0 -101 0 0 355 0 355 365 0 365 0 0 -214z
m880 -45 l0 -259 -84 34 c-168 69 -350 100 -532 92 l-104 -5 0 199 0 198 360
0 360 0 0 -259z m-3540 -961 l0 -350 -365 0 -365 0 0 350 0 350 365 0 365 0 0
-350z m890 0 l0 -350 -365 0 -365 0 0 350 0 350 365 0 365 0 0 -350z m880 144
c0 -171 -3 -219 -20 -282 -10 -43 -22 -107 -26 -144 l-7 -68 -338 0 -339 0 0
350 0 350 365 0 365 0 0 -206z m-1770 -1009 l0 -355 -272 0 c-157 0 -289 5
-310 10 -49 14 -93 52 -121 104 -21 39 -22 55 -25 319 l-4 277 366 0 366 0 0
-355z m890 0 l0 -355 -365 0 -365 0 0 355 0 355 365 0 365 0 0 -355z m828 310
c4 -65 42 -233 69 -309 34 -95 92 -208 147 -289 l46 -67 -470 0 -470 0 0 355
0 355 338 -2 337 -3 3 -40z"/>
<path d="M3745 2533 c-159 -22 -364 -107 -450 -188 -43 -40 -47 -47 -41 -77
15 -77 78 -88 168 -27 136 93 267 133 438 133 90 1 132 -4 193 -22 207 -59
368 -182 473 -362 67 -113 95 -212 101 -350 7 -168 -24 -295 -108 -437 -48
-81 -180 -212 -264 -261 -299 -176 -668 -138 -915 95 -171 161 -252 343 -251
568 0 126 20 214 77 334 52 110 56 150 18 180 -54 42 -95 22 -146 -71 -74
-137 -109 -276 -109 -438 -1 -276 93 -496 292 -686 163 -154 364 -239 594
-251 432 -22 811 249 942 674 25 81 27 101 27 258 0 156 -3 177 -28 260 -107
352 -391 602 -750 660 -85 14 -193 17 -261 8z"/>
<path d="M3805 2135 l-25 -24 0 -320 c0 -176 3 -327 6 -336 16 -41 49 -45 366
-45 326 0 342 3 365 52 16 31 1 83 -27 98 -11 6 -130 10 -284 10 l-266 0 0
261 c0 264 -3 288 -39 316 -26 20 -70 15 -96 -12z"/>
</g>
</svg>
