<?xml version="1.0" standalone="no"?>
<!DOCTYPE svg PUBLIC "-//W3C//DTD SVG 20010904//EN"
 "http://www.w3.org/TR/2001/REC-SVG-20010904/DTD/svg10.dtd">
<svg version="1.0" xmlns="http://www.w3.org/2000/svg"
 width="512.000000pt" height="512.000000pt" viewBox="0 0 512.000000 512.000000"
 preserveAspectRatio="xMidYMid meet">
<metadata>
Created by potrace 1.16, written by Peter Selinger 2001-2019
</metadata>
<g transform="translate(0.000000,512.000000) scale(0.100000,-0.100000)"
fill="#000000" stroke="none">
<path d="M2265 5109 c-487 -60 -917 -239 -1310 -547 -104 -82 -350 -334 -431
-442 -267 -356 -434 -746 -501 -1170 -26 -164 -26 -616 0 -780 82 -519 319
-998 680 -1376 394 -412 874 -667 1441 -766 174 -30 543 -37 727 -13 1188 149
2110 1084 2239 2272 16 145 8 533 -14 667 -184 1134 -1088 2011 -2216 2151
-135 16 -493 19 -615 4z m615 -384 c721 -114 1331 -562 1645 -1210 154 -316
219 -601 219 -955 0 -354 -65 -639 -219 -955 -315 -649 -920 -1093 -1650
-1211 -152 -25 -467 -25 -625 -1 -231 36 -436 100 -645 202 -651 316 -1100
929 -1212 1655 -24 158 -24 462 0 620 112 726 561 1339 1212 1655 251 122 484
187 790 219 83 9 384 -3 485 -19z"/>
<path d="M1560 3641 c-52 -28 -91 -82 -97 -135 -12 -105 -29 -84 420 -533
l412 -413 -412 -412 c-449 -450 -432 -429 -420 -534 6 -53 45 -107 97 -135 38
-21 113 -25 157 -9 15 6 211 194 436 418 l407 407 408 -407 c224 -224 420
-412 435 -418 67 -24 165 -2 208 46 46 53 62 137 39 201 -6 15 -194 211 -418
436 l-407 407 407 408 c224 224 412 420 418 435 16 44 12 119 -9 157 -28 52
-82 91 -135 97 -105 12 -84 29 -534 -420 l-412 -412 -408 407 c-224 224 -420
412 -435 418 -44 16 -119 12 -157 -9z"/>
</g>
</svg>
