<?xml version="1.0" standalone="no"?>
<!DOCTYPE svg PUBLIC "-//W3C//DTD SVG 20010904//EN"
 "http://www.w3.org/TR/2001/REC-SVG-20010904/DTD/svg10.dtd">
<svg version="1.0" xmlns="http://www.w3.org/2000/svg"
 width="512.000000pt" height="512.000000pt" viewBox="0 0 512.000000 512.000000"
 preserveAspectRatio="xMidYMid meet">

<g transform="translate(0.000000,512.000000) scale(0.100000,-0.100000)"
fill="#000000" stroke="none">
<path d="M560 5027 c-49 -16 -133 -102 -148 -153 -9 -31 -12 -270 -12 -970 l0
-929 -144 -361 c-163 -407 -182 -475 -173 -619 13 -187 39 -244 287 -615 l181
-271 -144 -432 -144 -432 -91 -3 -92 -3 0 -79 0 -80 2480 0 2480 0 0 80 0 80
-283 0 -283 0 -36 509 -36 509 39 76 c72 136 119 316 119 454 l0 52 136 0 c78
0 154 5 178 12 55 16 138 99 154 154 17 59 17 2808 0 2866 -6 22 -31 62 -55
88 -79 88 135 80 -2257 79 -1516 -1 -2131 -4 -2156 -12z m4295 -172 l25 -24 0
-1391 0 -1391 -25 -24 c-23 -24 -29 -25 -160 -25 l-135 0 0 296 c0 199 -4 310
-12 336 -14 48 -76 121 -118 138 l-30 12 0 969 0 969 -1680 0 -1680 0 0 -1039
0 -1039 -40 -7 c-59 -10 -154 -61 -189 -101 -74 -83 -106 -203 -82 -301 7 -26
34 -87 62 -135 27 -49 49 -90 49 -93 0 -3 -52 -5 -115 -5 -110 0 -117 1 -140
25 l-25 24 0 1391 0 1391 25 24 24 25 2111 0 2111 0 24 -25z m-615 -1187 l-1
-893 -24 46 c-70 135 -229 179 -347 97 -28 -19 -28 -19 -55 0 -45 31 -101 45
-159 39 l-54 -6 0 221 c0 140 -4 235 -12 260 -14 48 -76 121 -118 138 l-30 12
0 225 0 224 25 24 c32 33 78 33 110 0 25 -24 25 -26 25 -216 0 -230 6 -256 75
-324 101 -102 229 -102 330 0 66 65 75 99 75 269 l0 136 -80 0 -80 0 0 -135
c0 -131 -1 -137 -25 -160 -32 -33 -78 -33 -110 0 -25 24 -25 26 -25 216 0 230
-6 256 -75 324 -87 87 -201 100 -297 33 -28 -19 -28 -19 -55 0 -57 39 -142 53
-196 33 -22 -9 -26 -6 -43 31 -35 77 -129 138 -214 138 -92 0 -202 -80 -228
-166 -9 -30 -12 -169 -12 -498 l0 -456 80 0 80 0 0 455 0 456 25 24 c15 16 36
25 55 25 19 0 40 -9 55 -25 25 -24 25 -24 25 -240 l0 -215 80 0 80 0 0 135 c0
131 1 137 25 160 15 16 36 25 55 25 19 0 40 -9 55 -25 l25 -24 0 -224 0 -225
-30 -12 c-42 -17 -104 -90 -118 -138 -9 -28 -12 -196 -13 -578 0 -302 -4 -530
-9 -519 -4 11 -16 60 -25 110 -29 157 -100 256 -229 316 -128 60 -248 48 -320
-31 -69 -76 -71 -141 -12 -295 l44 -115 -596 0 -597 1 -87 131 -88 131 0 989
0 988 1520 0 1520 0 0 -892z m-825 -253 l25 -24 0 -536 0 -535 80 0 80 0 0
215 c0 216 0 216 25 240 15 16 36 25 55 25 19 0 40 -9 55 -25 25 -24 25 -24
25 -240 l0 -215 80 0 80 0 0 215 c0 216 0 216 25 240 32 33 78 33 110 0 25
-24 25 -24 25 -240 l0 -215 80 0 80 0 0 135 c0 131 1 137 25 160 32 33 78 33
110 0 l25 -24 0 -423 c0 -239 -5 -451 -10 -488 -13 -84 -43 -176 -82 -256
l-31 -64 -599 0 -598 0 -48 66 c-57 76 -121 202 -151 293 -11 35 -34 136 -51
225 -37 200 -77 344 -142 509 -55 141 -57 172 -11 183 62 16 162 -34 211 -106
24 -36 31 -61 55 -190 18 -94 36 -125 93 -157 78 -45 178 -15 221 67 l23 43 0
549 0 549 25 24 c15 16 36 25 55 25 19 0 40 -9 55 -25z m-2991 -1438 c24 -49
95 -110 144 -125 23 -7 107 -12 205 -12 l165 0 56 -100 57 -100 48 28 c102 58
108 23 -60 317 -82 143 -152 275 -155 293 -19 98 65 202 164 202 27 0 44 -23
226 -295 108 -163 206 -319 218 -348 18 -42 22 -72 22 -152 -1 -96 -3 -107
-66 -290 l-65 -190 -350 -3 -350 -2 -192 288 c-209 315 -238 374 -248 508 -8
102 8 173 85 369 l67 170 5 -260 c4 -228 7 -265 24 -298z m2205 146 c6 -21 14
-57 19 -80 l10 -43 -534 0 -533 0 -51 75 c-27 41 -50 77 -50 80 0 3 254 5 565
5 l564 0 10 -37z m71 -345 c27 -138 110 -320 207 -453 l51 -70 -36 -508 -36
-507 -683 0 -683 0 0 432 0 432 77 230 c74 224 76 234 77 331 1 55 -3 117 -7
138 l-8 37 514 0 514 0 13 -62z m1578 -1035 c18 -252 32 -468 32 -480 l0 -23
-630 0 -630 0 0 23 c0 12 14 228 32 480 l32 457 566 0 566 0 32 -457z m-2918
-103 l0 -400 -464 0 -464 0 129 388 c71 213 131 393 134 400 3 9 80 12 335 12
l330 0 0 -400z"/>
<path d="M720 3440 l0 -320 80 0 80 0 0 320 0 320 -80 0 -80 0 0 -320z"/>
<path d="M4560 3440 l0 -320 80 0 80 0 0 320 0 320 -80 0 -80 0 0 -320z"/>
<path d="M1360 4160 l0 -240 560 0 560 0 0 240 0 240 -560 0 -560 0 0 -240z
m960 0 l0 -80 -400 0 -400 0 0 80 0 80 400 0 400 0 0 -80z"/>
<path d="M1360 3680 l0 -80 320 0 320 0 0 80 0 80 -320 0 -320 0 0 -80z"/>
<path d="M2160 3680 l0 -80 160 0 160 0 0 80 0 80 -160 0 -160 0 0 -80z"/>
<path d="M1360 3360 l0 -80 560 0 560 0 0 80 0 80 -560 0 -560 0 0 -80z"/>
<path d="M1360 3040 l0 -80 560 0 560 0 0 80 0 80 -560 0 -560 0 0 -80z"/>
<path d="M1360 2720 l0 -80 80 0 80 0 0 80 0 80 -80 0 -80 0 0 -80z"/>
<path d="M1680 2720 l0 -80 80 0 80 0 0 80 0 80 -80 0 -80 0 0 -80z"/>
<path d="M2000 2720 l0 -80 80 0 80 0 0 80 0 80 -80 0 -80 0 0 -80z"/>
</g>
</svg>
