<?xml version="1.0" standalone="no"?>
<!DOCTYPE svg PUBLIC "-//W3C//DTD SVG 20010904//EN"
 "http://www.w3.org/TR/2001/REC-SVG-20010904/DTD/svg10.dtd">
<svg version="1.0" xmlns="http://www.w3.org/2000/svg"
 width="512.000000pt" height="512.000000pt" viewBox="0 0 512.000000 512.000000"
 preserveAspectRatio="xMidYMid meet">

<g transform="translate(0.000000,512.000000) scale(0.100000,-0.100000)"
fill="#000000" stroke="none">
<path d="M3865 4941 c-48 -22 -69 -44 -90 -94 -13 -32 -15 -180 -15 -1242 l0
-1205 -440 0 c-390 0 -440 2 -440 15 0 9 -11 27 -25 40 l-24 25 -711 0 -711 0
-24 -25 c-14 -13 -25 -31 -25 -40 0 -13 -63 -15 -575 -15 l-576 0 -24 -25
c-23 -22 -25 -32 -25 -118 0 -131 18 -187 83 -251 56 -56 126 -86 198 -86 l39
0 0 -160 0 -160 80 0 80 0 0 160 0 160 360 0 360 0 0 -495 0 -496 25 -24 24
-25 496 0 495 0 0 80 0 80 -440 0 -440 0 0 120 0 120 600 0 600 0 0 -120 0
-120 -80 0 -80 0 0 -80 0 -80 135 0 c131 0 137 1 160 25 l25 24 0 496 0 495
440 0 440 0 0 -80 0 -80 -72 0 c-134 0 -124 10 -403 -408 l-245 -367 0 -332 0
-333 -961 0 -962 0 27 33 c43 53 84 128 108 197 30 86 32 248 4 330 -84 250
-314 414 -561 398 l-55 -3 0 83 0 82 -80 0 -80 0 0 -108 0 -107 -46 -25 c-59
-31 -153 -123 -190 -185 -100 -172 -109 -364 -24 -541 65 -134 166 -224 319
-283 l66 -26 2153 -3 2153 -2 24 24 25 25 0 388 0 388 -245 367 c-279 418
-269 408 -403 408 l-72 0 0 1240 0 1240 -80 0 -80 0 0 -1240 0 -1240 -80 0
-80 0 2 1518 3 1517 75 0 75 0 3 -197 2 -198 80 0 80 0 0 208 c0 259 -12 295
-113 337 -54 22 -210 20 -262 -4z m-1145 -2901 l0 -280 -600 0 -600 0 0 280 0
280 600 0 600 0 0 -280z m-1360 120 l0 -81 -485 3 -485 3 -31 31 c-23 23 -33
44 -36 78 l-6 46 522 0 521 0 0 -80z m2400 0 l0 -80 -440 0 -440 0 0 80 0 80
440 0 440 0 0 -80z m-1040 -640 l0 -80 -600 0 -600 0 0 80 0 80 600 0 600 0 0
-80z m1848 -237 l212 -318 -390 -3 c-215 -1 -565 -1 -780 0 l-390 3 212 318
211 317 357 0 357 0 211 -317z m-3684 -201 c91 -42 149 -100 194 -190 35 -72
37 -81 37 -172 0 -91 -2 -100 -37 -172 -45 -91 -103 -147 -196 -191 -61 -29
-76 -32 -162 -32 -86 0 -101 3 -162 32 -93 44 -151 100 -196 191 -35 72 -37
81 -37 171 0 87 3 102 32 163 40 85 97 147 172 186 78 42 122 52 213 48 61 -3
92 -11 142 -34z m3916 -522 l0 -240 -160 0 -160 0 0 160 0 160 -80 0 -80 0 0
-160 0 -160 -120 0 -120 0 0 160 0 160 -80 0 -80 0 0 -160 0 -160 -120 0 -120
0 0 160 0 160 -80 0 -80 0 0 -160 0 -160 -160 0 -160 0 0 240 0 240 800 0 800
0 0 -240z"/>
<path d="M3680 1280 l0 -80 80 0 80 0 0 80 0 80 -80 0 -80 0 0 -80z"/>
<path d="M4160 1280 l0 -80 80 0 80 0 0 80 0 80 -80 0 -80 0 0 -80z"/>
<path d="M640 947 c-49 -16 -133 -102 -148 -153 -28 -94 -8 -169 63 -239 101
-102 229 -102 330 0 98 97 101 222 8 325 -65 72 -158 97 -253 67z m135 -172
c16 -15 25 -36 25 -55 0 -19 -9 -40 -25 -55 -15 -16 -36 -25 -55 -25 -19 0
-40 9 -55 25 -16 15 -25 36 -25 55 0 19 9 40 25 55 15 16 36 25 55 25 19 0 40
-9 55 -25z"/>
<path d="M560 4640 l0 -80 -80 0 -80 0 0 -80 0 -80 80 0 80 0 0 -80 0 -80 80
0 80 0 0 80 0 80 80 0 80 0 0 80 0 80 -80 0 -80 0 0 80 0 80 -80 0 -80 0 0
-80z m160 -160 l0 -80 -80 0 -80 0 0 80 0 80 80 0 80 0 0 -80z"/>
<path d="M1945 4615 c-24 -23 -25 -28 -25 -172 0 -179 2 -183 99 -214 69 -22
69 -23 64 -54 -7 -41 11 -73 47 -89 l29 -12 -120 -268 c-65 -148 -119 -278
-119 -290 0 -46 26 -63 173 -112 93 -31 152 -45 168 -41 15 4 102 96 238 252
118 135 216 245 218 245 1 0 3 -35 3 -77 l0 -78 -280 -400 -280 -399 0 -133 0
-133 80 0 80 0 0 108 0 107 261 373 261 372 188 0 189 0 30 -97 c16 -54 66
-219 110 -367 l81 -269 0 -153 0 -154 80 0 80 0 0 168 0 167 -120 399 -120
399 0 165 0 164 -171 299 c-94 165 -179 304 -189 309 -12 6 -210 10 -525 10
l-506 0 -24 -25z m253 -143 c-1 -4 -12 -31 -22 -60 -21 -54 -28 -58 -70 -42
-23 8 -26 15 -26 60 l0 50 61 0 c33 0 59 -4 57 -8z m829 -190 l112 -197 -162
-3 -162 -3 -270 67 c-148 37 -271 68 -273 69 -1 1 21 61 49 134 l52 131 271 0
271 -1 112 -197z m-441 -315 c3 -2 -80 -101 -183 -219 l-188 -215 -50 17 c-32
11 -49 23 -47 31 3 13 175 406 193 440 8 15 21 14 140 -16 72 -18 133 -35 135
-38z m614 -127 l0 -80 -160 0 -160 0 0 80 0 80 160 0 160 0 0 -80z"/>
<path d="M905 4061 c-96 -44 -105 -75 -105 -374 l0 -244 -52 -6 c-140 -14
-269 -109 -319 -232 -23 -58 -24 -71 -27 -352 l-3 -293 80 0 81 0 0 273 c0
272 0 273 25 324 26 51 72 91 128 112 18 7 191 11 492 11 l463 0 53 -28 c39
-20 62 -41 84 -77 l30 -48 3 -244 3 -243 80 0 80 0 -3 253 c-4 291 -11 324
-95 417 -71 79 -177 130 -270 130 l-33 0 0 248 c0 218 -3 252 -19 287 -22 48
-44 69 -94 90 -29 12 -84 15 -289 15 -224 0 -258 -3 -293 -19z m533 -383 l2
-238 -240 0 -240 0 0 233 c0 129 3 237 7 241 4 3 110 5 237 4 l231 -3 3 -237z"/>
<path d="M4560 3760 l0 -80 -80 0 -80 0 0 -80 0 -80 80 0 80 0 0 -80 0 -80 80
0 80 0 0 80 0 80 80 0 80 0 0 80 0 80 -80 0 -80 0 0 80 0 80 -80 0 -80 0 0
-80z m160 -160 l0 -80 -80 0 -80 0 0 80 0 80 80 0 80 0 0 -80z"/>
<path d="M825 3021 c-90 -41 -105 -84 -105 -296 l0 -165 80 0 79 0 3 158 3
157 315 0 315 0 3 -157 3 -158 79 0 80 0 0 168 c-1 214 -16 256 -113 297 -30
12 -92 15 -369 15 -302 0 -337 -2 -373 -19z"/>
</g>
</svg>
