<?xml version="1.0" standalone="no"?>
<!DOCTYPE svg PUBLIC "-//W3C//DTD SVG 20010904//EN"
 "http://www.w3.org/TR/2001/REC-SVG-20010904/DTD/svg10.dtd">
<svg version="1.0" xmlns="http://www.w3.org/2000/svg"
 width="512.000000pt" height="512.000000pt" viewBox="0 0 512.000000 512.000000"
 preserveAspectRatio="xMidYMid meet">

<g transform="translate(0.000000,512.000000) scale(0.100000,-0.100000)"
fill="#000000" stroke="none">
<path d="M1007 5110 c-119 -20 -258 -76 -357 -143 -66 -45 -176 -153 -226
-223 -57 -79 -108 -189 -135 -289 -31 -114 -31 -326 0 -440 42 -156 110 -275
225 -393 76 -79 147 -132 236 -177 61 -31 185 -75 210 -75 16 0 18 -27 24
-272 5 -149 12 -281 18 -293 15 -33 64 -58 101 -51 22 4 151 101 402 301 l370
294 115 1 116 0 22 -72 c56 -191 203 -341 396 -405 l81 -27 485 -4 485 -4 287
-184 c158 -101 299 -186 313 -190 35 -9 83 13 100 47 9 17 15 59 16 106 1 43
4 116 7 162 l7 83 60 22 c243 88 410 346 391 605 -12 156 -67 274 -180 386
-74 73 -153 121 -247 150 l-56 18 8 41 c16 81 10 266 -11 355 -82 342 -364
607 -708 666 -73 13 -164 15 -487 13 l-397 -3 -24 -28 c-33 -38 -33 -96 0
-134 l24 -28 429 -6 c464 -6 468 -7 596 -67 164 -77 284 -211 354 -395 25 -66
27 -85 27 -212 1 -77 -2 -152 -7 -167 l-7 -28 -722 0 c-803 0 -788 1 -923 -68
-87 -45 -207 -162 -252 -247 -17 -33 -39 -88 -49 -123 l-17 -62 -148 0 -147 0
-79 -60 c-43 -33 -181 -142 -308 -243 -147 -118 -233 -180 -237 -173 -4 6 -8
96 -8 199 0 256 -2 260 -150 287 -322 58 -570 352 -570 675 0 251 153 497 380
609 147 72 176 76 628 76 l394 0 34 34 c25 25 34 43 34 66 0 23 -9 42 -34 66
l-34 34 -404 -1 c-221 -1 -425 -5 -451 -9z m3325 -1303 c124 -61 197 -161 221
-302 20 -116 -21 -241 -109 -335 -56 -60 -125 -97 -216 -116 -58 -11 -79 -21
-100 -44 -27 -29 -28 -34 -28 -146 0 -104 -2 -115 -17 -110 -9 4 -114 70 -234
146 l-217 140 -454 0 c-249 1 -484 5 -522 9 -270 35 -431 323 -318 565 51 108
127 177 238 215 58 20 75 21 870 18 l810 -2 76 -38z"/>
<path d="M2825 3541 c-37 -16 -60 -51 -60 -93 0 -33 6 -45 33 -69 44 -40 93
-40 133 0 76 76 -7 202 -106 162z"/>
<path d="M3364 3516 c-37 -37 -43 -70 -20 -115 47 -90 186 -50 186 55 0 38
-59 94 -100 94 -23 0 -41 -9 -66 -34z"/>
<path d="M3948 3535 c-85 -48 -51 -185 46 -185 54 0 101 45 101 99 0 74 -82
122 -147 86z"/>
<path d="M2228 5104 c-34 -18 -48 -43 -48 -84 0 -42 15 -67 50 -85 43 -22 76
-18 112 14 27 24 33 36 33 71 0 35 -6 47 -33 71 -36 32 -72 36 -114 13z"/>
<path d="M902 2159 c-258 -34 -470 -217 -548 -475 -29 -94 -25 -266 9 -369 15
-44 38 -98 51 -120 l24 -40 -59 -31 c-131 -70 -239 -183 -304 -319 -65 -133
-75 -200 -75 -485 0 -262 4 -285 55 -308 19 -9 252 -12 936 -12 l911 0 35 35
35 35 -4 272 c-5 307 -10 335 -80 478 -34 69 -58 102 -132 175 -63 63 -112
102 -157 125 l-67 34 34 66 c47 94 67 179 68 290 1 116 -14 179 -66 290 -55
115 -177 239 -288 293 -122 60 -254 83 -378 66z m170 -204 c121 -15 261 -124
319 -248 82 -176 49 -373 -84 -508 -262 -266 -708 -123 -769 246 -31 188 71
384 246 470 68 34 163 55 216 49 14 -2 46 -6 72 -9z m-439 -991 c89 -60 237
-104 352 -104 115 0 263 44 352 104 20 14 45 26 53 26 41 0 165 -73 225 -133
121 -122 155 -225 155 -484 l0 -173 -785 0 -785 0 0 178 c0 193 10 254 56 350
42 86 133 175 226 222 44 22 88 40 97 40 9 0 34 -12 54 -26z"/>
<path d="M4048 2159 c-82 -11 -180 -46 -254 -90 -89 -54 -196 -173 -242 -271
-52 -109 -67 -172 -66 -288 1 -111 21 -196 68 -290 l34 -66 -67 -34 c-92 -47
-234 -190 -283 -285 -75 -146 -81 -178 -86 -488 l-4 -277 35 -35 35 -35 911 0
c684 0 917 3 936 12 51 23 55 46 55 308 0 287 -10 351 -77 490 -39 82 -58 107
-137 185 -62 62 -112 102 -158 125 l-66 34 23 41 c70 119 99 299 71 440 -66
337 -388 568 -728 524z m201 -210 c136 -31 256 -141 311 -284 29 -77 33 -204
7 -286 -65 -215 -301 -355 -519 -310 -234 49 -400 284 -360 511 48 269 292
429 561 369z m-466 -985 c89 -60 237 -104 352 -104 115 0 263 44 352 104 20
14 45 26 54 26 9 0 53 -18 97 -40 93 -47 184 -136 226 -222 46 -96 56 -157 56
-350 l0 -178 -786 0 -786 0 4 202 c4 173 8 211 26 260 47 129 143 235 264 293
40 19 79 35 88 35 8 0 33 -12 53 -26z"/>
</g>
</svg>
