<?xml version="1.0" standalone="no"?>
<!DOCTYPE svg PUBLIC "-//W3C//DTD SVG 20010904//EN"
 "http://www.w3.org/TR/2001/REC-SVG-20010904/DTD/svg10.dtd">
<svg version="1.0" xmlns="http://www.w3.org/2000/svg"
 width="225.000000pt" height="225.000000pt" viewBox="0 0 225.000000 225.000000"
 preserveAspectRatio="xMidYMid meet">

<g transform="translate(0.000000,225.000000) scale(0.100000,-0.100000)"
fill="#000000" stroke="none">
<path d="M110 1950 l0 -190 190 0 190 0 0 190 0 190 -190 0 -190 0 0 -190z
m330 -5 l0 -135 -135 0 -135 0 0 135 0 135 135 0 135 0 0 -135z"/>
<path d="M220 1950 l0 -80 80 0 80 0 0 80 0 80 -80 0 -80 0 0 -80z"/>
<path d="M550 2061 c0 -79 0 -80 28 -83 21 -2 28 -9 30 -30 3 -22 9 -28 28
-28 22 0 24 3 24 55 0 54 0 55 -30 55 -30 0 -30 1 -30 55 0 52 -1 55 -25 55
-25 0 -25 -1 -25 -79z"/>
<path d="M770 2115 c0 -20 5 -25 25 -25 20 0 25 5 25 25 0 20 -5 25 -25 25
-20 0 -25 -5 -25 -25z"/>
<path d="M930 2110 c0 -25 -4 -30 -25 -30 -20 0 -25 -5 -25 -25 l0 -25 110 0
110 0 0 -25 c0 -20 5 -25 25 -25 21 0 25 -5 25 -30 0 -25 -4 -30 -25 -30 -25
0 -25 -1 -25 -80 0 -79 0 -80 25 -80 20 0 25 5 25 25 0 21 5 25 30 25 30 0 30
-1 30 -55 0 -54 0 -55 -30 -55 -25 0 -30 -4 -30 -25 0 -21 5 -25 30 -25 25 0
30 4 30 25 0 24 3 25 55 25 52 0 55 -1 55 -25 0 -24 3 -25 55 -25 52 0 55 1
55 24 0 23 4 25 53 28 45 3 52 6 55 25 3 17 -2 22 -25 25 -22 2 -29 9 -31 31
-3 24 0 27 27 27 26 0 31 -4 31 -25 0 -20 5 -25 25 -25 20 0 25 5 25 25 0 21
5 25 30 25 l30 0 0 -80 0 -80 55 0 55 0 0 -85 0 -86 -57 3 c-54 3 -58 5 -58
28 0 20 6 26 28 28 21 3 27 9 27 27 0 18 -6 24 -27 27 -20 2 -29 9 -31 26 -5
34 -52 31 -52 -3 0 -20 -5 -25 -25 -25 -20 0 -25 5 -25 25 0 21 -5 25 -30 25
-25 0 -30 -4 -30 -25 0 -24 -3 -25 -55 -25 -52 0 -55 -1 -55 -24 0 -23 -4 -25
-52 -28 -49 -3 -53 -5 -56 -30 -3 -27 -6 -28 -58 -28 -53 0 -54 0 -54 30 0 30
1 30 55 30 52 0 55 2 55 24 0 19 6 25 28 28 19 2 28 9 30 26 3 19 -1 22 -27
22 -26 0 -31 -4 -31 -25 0 -24 -3 -25 -55 -25 -52 0 -55 -1 -55 -25 0 -20 -5
-25 -25 -25 -20 0 -25 5 -25 25 0 24 -3 25 -55 25 -54 0 -55 0 -55 30 0 30 1
30 55 30 52 0 55 1 55 25 0 25 -1 25 -85 25 l-85 0 0 55 c0 54 0 55 30 55 25
0 30 -4 30 -25 0 -20 5 -25 25 -25 25 0 25 1 25 80 0 79 0 80 -25 80 -20 0
-25 5 -25 25 0 24 -3 25 -55 25 -52 0 -55 -1 -55 -25 0 -24 -3 -25 -55 -25
l-55 0 0 55 c0 54 0 55 -30 55 -30 0 -30 -1 -30 -55 0 -54 0 -55 30 -55 25 0
30 -4 30 -25 0 -20 5 -25 25 -25 21 0 25 -5 25 -30 0 -25 -4 -30 -25 -30 -20
0 -25 5 -25 25 0 21 -5 25 -31 25 -26 0 -30 -3 -27 -22 2 -17 11 -24 31 -26
21 -3 27 -9 27 -28 0 -19 5 -24 25 -24 20 0 25 5 25 25 0 21 5 25 31 25 27 0
30 -3 27 -27 -2 -22 -9 -29 -31 -31 l-28 -3 3 -77 c3 -76 3 -77 31 -80 21 -3
27 -9 27 -28 0 -19 5 -24 25 -24 20 0 25 5 25 25 0 21 5 25 30 25 30 0 30 -1
30 -55 l0 -55 -54 0 c-52 0 -55 1 -58 28 -2 21 -8 27 -28 27 -20 0 -26 -6 -28
-27 -3 -22 -9 -28 -28 -28 -22 0 -24 -3 -24 -55 0 -54 0 -55 -30 -55 -30 0
-30 1 -30 55 0 52 -1 55 -25 55 -21 0 -25 5 -25 30 0 25 4 30 25 30 23 0 25 3
25 49 0 44 -2 49 -25 53 -22 5 -25 2 -25 -23 0 -26 -4 -29 -30 -29 -30 0 -30
1 -30 55 l0 55 59 0 c57 0 58 -1 53 -25 -4 -22 -1 -25 27 -25 31 0 31 1 31 49
0 47 -2 50 -27 53 -22 2 -29 9 -31 31 -3 21 -9 27 -28 27 -20 0 -24 -5 -24
-31 0 -27 -3 -30 -27 -27 -26 3 -28 7 -31 56 -3 48 -5 52 -28 52 l-24 0 0
-135 0 -135 -55 0 c-52 0 -55 2 -55 24 0 19 -6 25 -27 28 -22 2 -29 9 -31 31
-3 27 -4 27 -83 27 -78 0 -79 0 -79 -25 0 -24 3 -25 55 -25 54 0 55 0 55 -30
l0 -30 -80 0 -80 0 0 -55 c0 -52 1 -55 25 -55 21 0 25 5 25 31 0 27 3 30 27
27 22 -2 29 -9 31 -30 3 -28 4 -28 83 -28 78 0 79 0 79 -25 l0 -25 -110 0
-110 0 0 -30 c0 -27 -3 -30 -30 -30 -27 0 -30 3 -30 30 0 25 -4 30 -25 30 -24
0 -25 -3 -25 -55 l0 -55 55 0 c52 0 55 1 55 25 0 24 3 25 55 25 52 0 55 -1 55
-25 0 -20 -5 -25 -25 -25 -24 0 -25 -3 -25 -55 0 -52 1 -55 25 -55 20 0 25 5
25 25 0 20 5 25 25 25 24 0 25 3 25 55 0 54 0 55 30 55 25 0 30 -4 30 -25 0
-20 5 -25 25 -25 20 0 25 5 25 25 0 20 -5 25 -25 25 -21 0 -25 5 -25 30 0 30
1 30 55 30 52 0 55 1 55 25 0 24 3 25 55 25 52 0 55 -1 55 -25 0 -20 -5 -25
-25 -25 -21 0 -25 -5 -25 -30 0 -29 1 -30 49 -30 44 0 49 -2 53 -25 5 -24 4
-25 -53 -25 -56 0 -59 1 -59 25 0 20 -5 25 -25 25 -24 0 -25 -3 -25 -55 0 -55
0 -55 31 -55 l30 0 -3 -52 -3 -53 -82 -3 -83 -3 0 31 c0 25 4 30 25 30 20 0
25 5 25 25 0 20 -5 25 -25 25 -20 0 -25 -5 -25 -25 0 -20 -5 -25 -25 -25 -21
0 -25 -5 -25 -30 0 -25 4 -30 25 -30 20 0 25 -5 25 -25 0 -20 -5 -25 -25 -25
-24 0 -25 -3 -25 -55 l0 -55 -55 0 -54 0 -3 -82 -3 -83 -52 -3 c-49 -3 -53 -5
-53 -28 0 -20 -5 -24 -30 -24 l-30 0 0 -110 0 -110 25 0 c25 0 25 1 25 80 l0
80 30 0 c27 0 30 3 30 30 0 30 1 30 55 30 52 0 55 1 55 25 0 20 5 25 25 25 21
0 25 5 25 30 0 25 -4 30 -25 30 -20 0 -25 5 -25 25 0 24 3 25 55 25 52 0 55
-1 55 -25 0 -20 5 -25 25 -25 20 0 25 5 25 25 0 20 -5 25 -25 25 -21 0 -25 5
-25 30 0 25 4 30 25 30 20 0 25 5 25 25 0 20 -5 25 -25 25 -21 0 -25 5 -25 31
0 27 3 30 28 27 21 -2 28 -9 30 -30 3 -22 9 -28 28 -28 19 0 24 -5 24 -25 0
-20 -5 -25 -25 -25 -21 0 -25 -5 -25 -30 0 -25 4 -30 25 -30 21 0 25 5 25 30
0 25 4 30 25 30 20 0 25 5 25 25 0 21 5 25 30 25 l30 0 0 85 0 85 55 0 c54 0
55 0 55 -30 0 -27 -3 -30 -30 -30 -25 0 -30 -4 -30 -25 0 -21 5 -25 30 -25 27
0 30 -3 30 -30 0 -27 -3 -30 -31 -30 -28 0 -31 -3 -27 -25 5 -22 2 -25 -23
-25 -26 0 -29 -4 -29 -30 0 -26 -4 -30 -27 -30 l-28 0 3 -80 4 -80 -31 0 -31
0 0 -135 0 -135 24 0 c23 0 25 4 28 52 3 49 5 53 31 56 21 3 27 9 27 28 0 22
3 24 55 24 54 0 55 0 55 -30 0 -27 -3 -30 -30 -30 -25 0 -30 -4 -30 -25 0 -21
5 -25 30 -25 27 0 30 -3 30 -30 0 -30 -1 -30 -55 -30 -52 0 -55 -1 -55 -25 0
-20 -5 -25 -24 -25 -19 0 -25 -6 -28 -27 -2 -22 -9 -29 -30 -31 -28 -3 -28 -4
-28 -83 l0 -79 55 0 c52 0 55 -1 55 -25 0 -20 5 -25 25 -25 23 0 25 3 25 50
l0 50 -55 0 c-54 0 -55 0 -55 30 0 27 3 30 30 30 27 0 30 3 30 31 0 27 3 30
28 27 23 -3 27 -7 24 -30 -3 -25 0 -28 27 -28 l31 0 0 -85 0 -85 -30 0 c-25 0
-30 -4 -30 -25 0 -24 3 -25 55 -25 l54 0 3 83 c3 81 3 82 31 85 l27 3 0 135 0
134 25 0 c20 0 25 5 25 25 0 20 -5 25 -25 25 -20 0 -25 -5 -25 -25 0 -24 -3
-25 -56 -25 -54 0 -55 0 -52 28 3 25 7 27 56 30 48 3 52 5 52 28 0 19 5 24 25
24 20 0 25 5 25 25 0 20 -5 25 -25 25 -20 0 -25 -5 -25 -25 0 -21 -5 -25 -30
-25 -30 0 -30 1 -30 55 0 54 0 55 30 55 25 0 30 4 30 25 0 21 -5 25 -30 25
-27 0 -30 3 -30 31 l0 30 -52 -3 c-49 -3 -53 -5 -53 -28 0 -20 6 -26 28 -28
26 -3 27 -6 27 -58 l0 -54 -55 0 -55 0 0 85 c0 84 0 85 25 85 20 0 25 5 25 24
0 19 6 25 28 28 21 2 28 9 30 31 3 22 8 27 31 27 26 0 29 -4 34 -46 6 -55 43
-98 96 -112 20 -6 28 -10 18 -11 -15 -1 -18 -9 -15 -53 3 -49 5 -53 28 -53 23
0 25 4 28 57 l3 57 179 3 179 3 30 29 c16 15 34 45 39 65 9 33 10 30 11 -36 1
-71 2 -73 26 -73 25 0 25 1 25 85 l0 85 30 0 c27 0 30 -3 30 -30 0 -25 4 -30
25 -30 20 0 25 -5 25 -25 0 -20 -5 -25 -25 -25 -21 0 -25 -5 -25 -30 0 -25 4
-30 25 -30 21 0 25 5 25 30 0 26 4 30 28 30 22 0 27 4 27 25 0 21 -5 25 -27
25 -24 0 -28 4 -28 30 0 26 4 30 28 30 l27 0 -3 80 c-3 77 -4 80 -28 80 -24 0
-24 2 -24 85 l0 85 30 0 c27 0 30 -3 30 -30 0 -25 4 -30 25 -30 20 0 25 -5 25
-25 0 -20 -5 -25 -25 -25 -21 0 -25 -5 -25 -30 0 -25 4 -30 25 -30 21 0 25 5
25 30 0 30 1 30 55 30 54 0 55 0 55 -30 0 -25 -4 -30 -25 -30 -20 0 -25 -5
-25 -25 0 -23 3 -25 50 -25 l50 0 0 55 c0 52 -1 55 -25 55 -20 0 -25 5 -25 25
0 21 5 25 30 25 25 0 30 -4 30 -25 0 -20 5 -25 25 -25 24 0 25 3 25 55 0 52 1
55 25 55 20 0 25 5 25 25 0 21 5 25 30 25 27 0 30 3 30 30 0 30 1 30 55 30 52
0 55 1 55 25 0 21 -5 25 -31 25 -27 0 -30 3 -27 28 2 21 9 28 31 30 21 3 27 9
27 28 0 22 -3 24 -55 24 -54 0 -55 0 -55 30 0 30 1 30 55 30 52 0 55 1 55 25
0 25 -1 25 -79 25 -79 0 -80 0 -83 -27 -3 -27 -5 -28 -58 -28 -53 0 -55 1 -58
28 -3 27 -4 27 -83 27 l-79 0 0 80 0 79 -82 3 c-81 3 -81 3 -82 31 -2 26 0 27
51 27 l53 0 0 55 c0 54 0 55 30 55 30 0 30 1 30 55 0 52 -2 55 -24 55 -19 0
-25 -6 -28 -27 -2 -22 -9 -29 -30 -31 -22 -3 -28 -9 -28 -28 0 -19 -5 -24 -25
-24 -20 0 -25 5 -25 25 0 21 -5 25 -30 25 -25 0 -30 -4 -30 -25 0 -25 -1 -25
-80 -25 l-80 0 0 55 c0 54 0 55 -30 55 -27 0 -30 -3 -30 -30 0 -25 -4 -30 -25
-30 -21 0 -25 5 -25 30 0 30 -1 30 -55 30 -54 0 -55 0 -55 -30 0 -30 -1 -30
-55 -30 -54 0 -55 0 -55 30 0 27 -3 30 -30 30 -27 0 -30 -3 -30 -30z m390
-135 c0 -52 1 -55 25 -55 21 0 25 5 25 30 0 30 1 30 55 30 52 0 55 1 55 25 0
21 5 25 31 25 27 0 30 -3 27 -27 -2 -22 -9 -29 -30 -31 -22 -3 -28 -9 -28 -28
0 -19 -5 -24 -25 -24 -24 0 -24 -2 -27 -82 -3 -81 -4 -83 -28 -83 -23 0 -25 4
-28 53 -3 48 -5 52 -28 52 -20 0 -24 5 -24 30 0 27 -3 30 -30 30 -25 0 -30 4
-30 25 0 20 -5 25 -25 25 -21 0 -25 5 -25 30 0 30 1 30 55 30 l55 0 0 -55z
m-112 -82 c-2 -22 -8 -28 -28 -28 -20 0 -26 6 -28 28 -3 24 0 27 28 27 28 0
31 -3 28 -27z m110 -110 c-2 -22 -8 -28 -28 -28 -20 0 -26 6 -28 28 -3 24 0
27 28 27 28 0 31 -3 28 -27z m-388 -138 c0 -52 -1 -55 -25 -55 -24 0 -25 3
-25 55 0 52 1 55 25 55 24 0 25 -3 25 -55z m-490 -80 c0 -24 3 -25 55 -25 52
0 55 1 55 26 0 22 4 25 28 22 21 -2 27 -8 27 -28 0 -21 -4 -25 -27 -22 -25 3
-28 0 -28 -27 0 -31 0 -31 -54 -31 -52 0 -55 1 -58 28 -3 26 -6 27 -56 27 -50
0 -52 1 -52 28 0 26 2 27 55 27 52 0 55 -1 55 -25z m1430 0 c0 -21 -5 -25 -30
-25 -25 0 -30 4 -30 25 0 21 5 25 30 25 25 0 30 -4 30 -25z m160 -30 l0 -55
-55 0 -55 0 0 55 0 55 55 0 55 0 0 -55z m-930 -55 l0 -60 -55 0 c-54 0 -55 0
-55 30 0 25 4 30 25 30 21 0 25 5 25 30 0 27 3 30 30 30 l30 0 0 -60z m330 30
c0 -27 -3 -30 -30 -30 -25 0 -30 -4 -30 -25 0 -21 5 -25 30 -25 30 0 30 -1 30
-55 l0 -55 55 0 c52 0 55 1 55 25 0 21 -5 25 -30 25 -27 0 -30 3 -30 30 l0 30
85 0 85 0 0 -30 c0 -27 -3 -30 -30 -30 -25 0 -30 -4 -30 -25 0 -20 -5 -25 -25
-25 -21 0 -25 -5 -25 -30 0 -30 0 -30 -59 -30 l-58 0 -6 46 c-6 55 -43 98 -96
112 -20 6 -28 10 -18 11 11 1 17 9 17 26 0 20 5 25 25 25 21 0 25 5 25 30 0
27 3 30 30 30 27 0 30 -3 30 -30z m110 0 c0 -27 -3 -30 -30 -30 -27 0 -30 3
-30 30 0 27 3 30 30 30 27 0 30 -3 30 -30z m-611 -92 c-53 -14 -90 -57 -96
-112 -5 -43 -8 -46 -34 -46 -28 0 -29 1 -29 55 0 52 1 55 25 55 21 0 25 5 25
30 l0 30 73 -1 c66 -1 69 -2 36 -11z m881 -18 c0 -25 4 -30 24 -30 19 0 25 6
28 28 2 21 9 28 31 30 24 3 27 0 27 -27 0 -26 -4 -31 -25 -31 -20 0 -25 -5
-25 -25 0 -21 -5 -25 -30 -25 -27 0 -30 -3 -30 -30 0 -30 -1 -30 -55 -30 -54
0 -55 0 -55 30 0 25 4 30 25 30 23 0 25 3 25 48 0 55 4 62 37 62 19 0 23 -5
23 -30z m-644 -145 c19 -30 11 -62 -21 -77 -49 -22 -96 42 -60 82 25 27 61 25
81 -5z m374 -75 l0 -30 -60 0 -60 0 0 30 0 30 60 0 60 0 0 -30z m-376 -62 c3
-24 8 -67 12 -95 l7 -53 -58 0 -58 0 7 65 c12 120 14 125 51 125 31 0 33 -2
39 -42z m-334 7 c0 -21 -5 -25 -30 -25 -25 0 -30 4 -30 25 0 21 5 25 30 25 25
0 30 -4 30 -25z m710 -55 l0 -30 -60 0 -60 0 0 30 0 30 60 0 60 0 0 -30z"/>
<path d="M1370 2115 c0 -21 5 -25 30 -25 25 0 30 4 30 25 0 21 -5 25 -30 25
-25 0 -30 -4 -30 -25z"/>
<path d="M1540 2115 c0 -20 5 -25 25 -25 20 0 25 5 25 25 0 20 -5 25 -25 25
-20 0 -25 -5 -25 -25z"/>
<path d="M1760 1950 l0 -190 190 0 190 0 0 190 0 190 -190 0 -190 0 0 -190z
m320 -5 l0 -135 -135 0 -135 0 0 135 0 135 135 0 135 0 0 -135z"/>
<path d="M1870 1950 l0 -80 80 0 80 0 0 80 0 80 -80 0 -80 0 0 -80z"/>
<path d="M440 1675 c0 -20 5 -25 25 -25 20 0 25 5 25 25 0 20 -5 25 -25 25
-20 0 -25 -5 -25 -25z"/>
<path d="M1540 1675 c0 -20 5 -25 25 -25 20 0 25 5 25 25 0 20 -5 25 -25 25
-20 0 -25 -5 -25 -25z"/>
<path d="M110 1618 c0 -23 4 -28 25 -28 21 0 25 5 25 28 0 22 -4 27 -25 27
-21 0 -25 -5 -25 -27z"/>
<path d="M2090 1290 c0 -79 0 -80 25 -80 25 0 25 1 25 80 0 79 0 80 -25 80
-25 0 -25 -1 -25 -80z"/>
<path d="M110 1205 c0 -52 1 -55 25 -55 24 0 25 3 25 55 0 52 -1 55 -25 55
-24 0 -25 -3 -25 -55z"/>
<path d="M1980 1205 c0 -54 0 -55 -30 -55 -25 0 -30 -4 -30 -25 0 -20 -5 -25
-25 -25 -21 0 -25 -5 -25 -30 l0 -31 -57 3 c-55 3 -58 4 -61 31 -3 21 -9 27
-28 27 -22 0 -24 -3 -24 -55 l0 -55 55 0 c54 0 55 0 55 -30 0 -25 -4 -30 -25
-30 -20 0 -25 -5 -25 -25 0 -21 -5 -25 -31 -25 -27 0 -30 -3 -27 -27 2 -22 9
-29 31 -31 21 -3 27 -9 27 -28 0 -24 0 -24 -110 -24 l-110 0 0 -30 0 -30 110
0 110 0 0 -25 c0 -23 3 -25 50 -25 47 0 50 2 50 25 0 20 -5 25 -25 25 -24 0
-25 3 -25 55 0 52 1 55 25 55 21 0 25 5 25 30 0 25 -4 30 -25 30 -20 0 -25 5
-25 25 0 20 5 25 25 25 21 0 25 5 25 30 0 27 3 30 30 30 30 0 30 1 30 55 l0
55 85 0 85 0 0 -30 c0 -30 -1 -30 -55 -30 l-55 0 0 -80 0 -80 80 0 c79 0 80 0
80 25 0 24 -3 25 -55 25 -54 0 -55 0 -55 30 0 30 1 30 55 30 l55 0 0 80 0 80
-55 0 -55 0 0 55 c0 52 -1 55 -25 55 -24 0 -25 -3 -25 -55z"/>
<path d="M220 1180 c0 -25 -4 -30 -25 -30 -25 0 -25 -1 -25 -80 0 -79 0 -80
25 -80 25 0 25 1 25 80 0 79 0 80 25 80 21 0 25 5 25 30 0 25 -4 30 -25 30
-21 0 -25 -5 -25 -30z"/>
<path d="M280 1125 c0 -23 3 -25 50 -25 47 0 50 2 50 25 0 23 -3 25 -50 25
-47 0 -50 -2 -50 -25z"/>
<path d="M170 905 c0 -20 5 -25 25 -25 20 0 25 5 25 25 0 20 -5 25 -25 25 -20
0 -25 -5 -25 -25z"/>
<path d="M110 850 c0 -25 4 -30 25 -30 21 0 25 5 25 30 0 25 -4 30 -25 30 -21
0 -25 -5 -25 -30z"/>
<path d="M390 795 c0 -23 3 -25 50 -25 47 0 50 2 50 25 0 23 -3 25 -50 25 -47
0 -50 -2 -50 -25z"/>
<path d="M1320 795 c0 -20 5 -25 25 -25 20 0 25 5 25 25 0 20 -5 25 -25 25
-20 0 -25 -5 -25 -25z"/>
<path d="M1980 795 c0 -20 5 -25 25 -25 20 0 25 5 25 25 0 20 -5 25 -25 25
-20 0 -25 -5 -25 -25z"/>
<path d="M2090 795 c0 -20 5 -25 25 -25 20 0 25 5 25 25 0 20 -5 25 -25 25
-20 0 -25 -5 -25 -25z"/>
<path d="M1430 740 c0 -25 4 -30 25 -30 21 0 25 5 25 30 0 25 -4 30 -25 30
-21 0 -25 -5 -25 -30z"/>
<path d="M280 685 c0 -20 5 -25 25 -25 21 0 25 -5 25 -30 0 -30 -1 -30 -55
-30 -52 0 -55 -1 -55 -25 0 -24 3 -25 54 -25 52 0 55 1 58 28 2 21 8 27 28 27
20 0 26 -6 28 -27 3 -26 6 -28 53 -28 46 0 49 2 49 25 0 20 -5 25 -25 25 -21
0 -25 5 -25 30 0 25 4 30 25 30 20 0 25 5 25 25 0 20 -5 25 -25 25 -20 0 -25
-5 -25 -25 0 -24 -3 -25 -55 -25 -52 0 -55 1 -55 25 0 20 -5 25 -25 25 -20 0
-25 -5 -25 -25z"/>
<path d="M1210 661 c0 -44 2 -49 25 -53 22 -5 25 -2 25 23 0 26 4 29 30 29 26
0 30 -4 30 -27 0 -23 4 -28 25 -28 23 0 25 3 25 53 l0 52 -80 0 -80 0 0 -49z"/>
<path d="M1920 685 c0 -20 -5 -25 -25 -25 -21 0 -25 -5 -25 -30 l0 -31 -57 3
c-55 3 -58 4 -61 31 -3 25 -6 27 -53 27 l-49 0 0 -55 c0 -54 0 -55 -30 -55
-30 0 -30 1 -30 55 0 52 -1 55 -25 55 -21 0 -25 -5 -25 -30 0 -27 -3 -30 -30
-30 -27 0 -30 3 -30 30 0 25 -4 30 -25 30 -21 0 -25 -5 -25 -28 0 -23 4 -28
23 -28 17 1 23 -5 25 -26 3 -24 8 -28 33 -28 24 0 29 -4 29 -24 0 -23 4 -25
53 -28 48 -3 52 -5 55 -30 3 -28 2 -28 -52 -28 -53 0 -56 1 -56 25 0 21 -5 25
-30 25 -25 0 -30 -4 -30 -25 0 -21 5 -25 30 -25 25 0 30 -4 30 -25 0 -20 5
-25 25 -25 21 0 25 -5 25 -30 0 -27 3 -30 30 -30 25 0 30 -4 30 -25 0 -20 5
-25 25 -25 20 0 25 5 25 25 0 21 5 25 30 25 25 0 30 -4 30 -25 0 -20 5 -25 25
-25 20 0 25 5 25 25 0 21 5 25 30 25 25 0 30 -4 30 -25 0 -23 3 -25 50 -25 47
0 50 2 50 25 0 20 -5 25 -25 25 -24 0 -25 3 -25 55 0 52 1 55 25 55 20 0 25 5
25 25 0 20 -5 25 -25 25 -25 0 -25 1 -25 85 l0 85 110 0 110 0 0 25 0 25 -110
0 -110 0 0 -25z m-50 -220 l0 -85 -85 0 -85 0 0 85 0 85 85 0 85 0 0 -85z"/>
<path d="M1760 465 c0 -20 5 -25 25 -25 20 0 25 5 25 25 0 20 -5 25 -25 25
-20 0 -25 -5 -25 -25z"/>
<path d="M990 633 c0 -28 1 -28 55 -25 50 4 55 6 55 28 0 22 -4 24 -55 24 -53
0 -55 -1 -55 -27z"/>
<path d="M1100 575 c0 -24 3 -25 55 -25 52 0 55 1 55 25 0 24 -3 25 -55 25
-52 0 -55 -1 -55 -25z"/>
<path d="M1980 575 c0 -20 5 -25 25 -25 24 0 25 -3 25 -55 0 -54 0 -55 30 -55
30 0 30 -1 30 -55 0 -52 1 -55 25 -55 25 0 25 1 25 79 0 79 0 80 -27 83 -26 3
-28 7 -31 56 l-3 52 -50 0 c-46 0 -49 -2 -49 -25z"/>
<path d="M1320 526 c0 -25 3 -26 56 -26 52 0 55 1 52 23 -3 19 -10 22 -55 25
-51 3 -53 2 -53 -22z"/>
<path d="M110 300 l0 -190 190 0 190 0 0 190 0 190 -190 0 -190 0 0 -190z
m330 5 l0 -135 -135 0 -135 0 0 135 0 135 135 0 135 0 0 -135z"/>
<path d="M220 300 l0 -80 80 0 80 0 0 80 0 80 -80 0 -80 0 0 -80z"/>
<path d="M930 465 c0 -21 5 -25 30 -25 25 0 30 4 30 25 0 21 -5 25 -30 25 -25
0 -30 -4 -30 -25z"/>
<path d="M1150 440 c0 -49 1 -50 30 -50 25 0 30 4 30 25 0 24 3 25 55 25 52 0
55 -1 55 -25 0 -20 5 -25 25 -25 20 0 25 5 25 25 0 20 -5 25 -25 25 -20 0 -25
5 -25 25 0 25 -1 25 -85 25 l-85 0 0 -50z"/>
<path d="M1040 410 c0 -25 -4 -30 -25 -30 -20 0 -25 -5 -25 -25 0 -21 -5 -25
-30 -25 -30 0 -30 -1 -30 -55 0 -54 0 -55 30 -55 27 0 30 3 30 30 0 30 1 30
55 30 52 0 55 1 55 25 0 20 5 25 25 25 20 0 25 5 25 25 0 20 -5 25 -25 25 -21
0 -25 5 -25 30 0 27 -3 30 -30 30 -27 0 -30 -3 -30 -30z"/>
<path d="M1430 355 c0 -24 3 -25 55 -25 52 0 55 1 55 25 0 24 -3 25 -55 25
-52 0 -55 -1 -55 -25z"/>
<path d="M1980 355 c0 -20 5 -25 25 -25 20 0 25 5 25 25 0 20 -5 25 -25 25
-20 0 -25 -5 -25 -25z"/>
<path d="M1260 250 l0 -80 30 0 30 0 0 80 0 80 -30 0 -30 0 0 -80z"/>
<path d="M1100 220 l0 -50 55 0 c52 0 55 1 55 25 0 21 -5 25 -30 25 -25 0 -30
4 -30 25 0 20 -5 25 -25 25 -23 0 -25 -3 -25 -50z"/>
<path d="M1370 190 l0 -80 110 0 110 0 0 25 c0 25 -1 25 -80 25 l-80 0 0 30 0
30 80 0 c79 0 80 0 80 25 l0 25 -110 0 -110 0 0 -80z"/>
<path d="M1700 245 c0 -20 -5 -25 -25 -25 -20 0 -25 -5 -25 -25 0 -20 5 -25
25 -25 21 0 25 -5 25 -30 0 -26 4 -30 28 -30 24 0 28 4 27 28 0 22 5 28 28 30
21 3 27 9 27 28 0 20 -5 24 -30 24 -25 0 -30 4 -30 25 0 20 -5 25 -25 25 -20
0 -25 -5 -25 -25z"/>
<path d="M1980 245 c0 -20 5 -25 25 -25 20 0 25 5 25 25 0 20 -5 25 -25 25
-20 0 -25 -5 -25 -25z"/>
<path d="M2088 218 l-3 -53 -82 -3 c-81 -3 -83 -3 -83 -27 l0 -25 110 0 110 0
0 80 c0 78 -1 80 -24 80 -23 0 -25 -4 -28 -52z"/>
<path d="M1870 195 c0 -20 5 -25 25 -25 20 0 25 5 25 25 0 20 -5 25 -25 25
-20 0 -25 -5 -25 -25z"/>
<path d="M990 135 c0 -20 5 -25 25 -25 20 0 25 5 25 25 0 20 -5 25 -25 25 -20
0 -25 -5 -25 -25z"/>
<path d="M1810 135 c0 -20 5 -25 25 -25 20 0 25 5 25 25 0 20 -5 25 -25 25
-20 0 -25 -5 -25 -25z"/>
</g>
</svg>
