<?xml version="1.0" standalone="no"?>
<!DOCTYPE svg PUBLIC "-//W3C//DTD SVG 20010904//EN"
 "http://www.w3.org/TR/2001/REC-SVG-20010904/DTD/svg10.dtd">
<svg version="1.0" xmlns="http://www.w3.org/2000/svg"
 width="512.000000pt" height="512.000000pt" viewBox="0 0 512.000000 512.000000"
 preserveAspectRatio="xMidYMid meet">

<g transform="translate(0.000000,512.000000) scale(0.100000,-0.100000)"
fill="#000000" stroke="none">
<path d="M2330 5110 c-494 -48 -950 -230 -1350 -538 -195 -150 -448 -432 -594
-662 -63 -99 -186 -351 -230 -471 -49 -134 -102 -340 -128 -499 -31 -195 -31
-565 0 -760 45 -276 116 -498 237 -745 132 -269 269 -460 489 -681 221 -220
412 -357 681 -489 247 -121 469 -192 745 -237 195 -31 565 -31 760 0 276 45
498 116 745 237 269 132 460 269 681 489 220 221 357 412 489 681 88 179 132
296 180 476 63 240 78 371 78 649 0 278 -15 409 -78 649 -48 180 -92 297 -180
476 -132 269 -269 460 -489 681 -221 220 -412 357 -681 489 -246 121 -474 193
-740 235 -147 23 -475 34 -615 20z m585 -434 c50 -9 140 -30 201 -46 727 -192
1322 -787 1514 -1514 57 -218 65 -279 65 -556 0 -277 -8 -338 -65 -556 -192
-727 -787 -1322 -1514 -1514 -218 -57 -279 -65 -556 -65 -277 0 -338 8 -556
65 -727 192 -1322 787 -1514 1514 -57 218 -65 279 -65 556 0 277 8 338 65 556
153 577 560 1078 1102 1355 235 119 434 179 743 223 76 11 494 -2 580 -18z"/>
<path d="M3648 3460 c-20 -4 -54 -18 -75 -33 -21 -14 -332 -305 -692 -646
-359 -342 -657 -621 -660 -621 -4 0 -154 150 -334 334 -198 203 -340 340 -363
351 -52 25 -150 17 -197 -15 -74 -51 -110 -145 -87 -230 14 -51 4 -41 493
-541 219 -225 372 -374 394 -385 51 -23 129 -22 178 4 62 32 1535 1432 1563
1486 26 49 31 121 12 171 -32 86 -138 143 -232 125z"/>
</g>
</svg>
