<?xml version="1.0" standalone="no"?>
<!DOCTYPE svg PUBLIC "-//W3C//DTD SVG 20010904//EN"
 "http://www.w3.org/TR/2001/REC-SVG-20010904/DTD/svg10.dtd">
<svg version="1.0" xmlns="http://www.w3.org/2000/svg"
 width="512.000000pt" height="512.000000pt" viewBox="0 0 512.000000 512.000000"
 preserveAspectRatio="xMidYMid meet">

<g transform="translate(0.000000,512.000000) scale(0.100000,-0.100000)"
fill="#000000" stroke="none">
<path d="M345 4935 c-24 -23 -25 -30 -25 -147 -1 -158 -17 -244 -75 -398 -83
-223 -78 -173 -82 -850 -3 -464 -1 -615 8 -650 9 -31 29 -61 63 -96 60 -59
118 -80 196 -70 47 6 50 5 50 -15 0 -82 85 -193 166 -217 50 -14 104 -15 138
-2 21 8 26 6 32 -13 14 -44 58 -99 99 -123 146 -85 339 5 361 169 l7 47 48 -6
c67 -9 130 11 183 57 83 73 80 57 86 553 l5 439 63 -81 c100 -129 162 -172
252 -172 154 0 278 168 228 311 -11 33 -290 480 -423 679 -35 52 -96 131 -135
174 -99 111 -150 229 -150 347 0 80 -82 118 -137 63 -25 -25 -26 -29 -20 -105
12 -150 71 -281 187 -414 119 -136 530 -770 530 -818 0 -38 -41 -77 -80 -77
-38 0 -44 6 -198 197 -111 139 -122 156 -122 193 0 80 -82 119 -135 65 l-25
-24 0 -591 0 -591 -25 -24 c-15 -16 -36 -25 -55 -25 -19 0 -40 9 -55 25 l-25
24 0 391 0 391 -25 24 c-15 16 -36 25 -55 25 -19 0 -40 -9 -55 -25 l-25 -24 0
-511 0 -511 -25 -24 c-15 -16 -36 -25 -55 -25 -19 0 -40 9 -55 25 l-25 24 0
511 0 511 -25 24 c-32 33 -78 33 -110 0 l-25 -24 0 -431 0 -431 -25 -24 c-15
-16 -36 -25 -55 -25 -19 0 -40 9 -55 25 l-25 24 0 431 0 431 -25 24 c-32 33
-78 33 -110 0 l-25 -24 0 -311 0 -311 -25 -24 c-15 -16 -36 -25 -55 -25 -19 0
-40 9 -55 25 l-25 24 0 565 c0 633 1 639 70 822 70 186 81 241 87 426 l6 166
-26 26 c-34 34 -79 34 -112 1z"/>
<path d="M2880 4947 c-19 -6 -58 -34 -86 -62 -59 -59 -80 -117 -70 -195 6 -47
5 -50 -15 -50 -82 0 -193 -85 -217 -166 -14 -50 -15 -104 -2 -138 8 -21 6 -26
-13 -32 -44 -14 -99 -58 -123 -99 -85 -146 5 -339 169 -361 l47 -7 -6 -48 c-9
-67 11 -130 57 -183 73 -83 57 -80 553 -86 l439 -5 -81 -63 c-131 -101 -172
-161 -172 -251 0 -155 167 -278 311 -229 19 6 190 111 382 232 240 153 379
248 450 309 142 122 242 167 369 167 79 0 116 82 62 137 -25 25 -29 26 -110
19 -154 -11 -274 -68 -424 -201 -79 -69 -126 -101 -491 -333 -190 -121 -295
-182 -313 -182 -60 0 -98 82 -58 128 9 11 88 77 174 146 144 116 160 126 198
126 80 0 119 82 65 135 l-24 25 -591 0 -591 0 -24 25 c-16 15 -25 36 -25 55 0
19 9 40 25 55 l24 25 391 0 391 0 24 25 c33 32 33 78 0 110 l-24 25 -511 0
-511 0 -24 25 c-33 32 -33 78 0 110 l24 25 511 0 511 0 24 25 c16 15 25 36 25
55 0 19 -9 40 -25 55 l-24 25 -431 0 -431 0 -24 25 c-16 15 -25 36 -25 55 0
19 9 40 25 55 l24 25 431 0 431 0 24 25 c16 15 25 36 25 55 0 19 -9 40 -25 55
l-24 25 -311 0 -311 0 -24 25 c-16 15 -25 36 -25 55 0 19 9 40 25 55 l24 25
556 0 c354 0 582 -4 628 -11 40 -6 133 -33 207 -60 205 -74 236 -80 422 -86
l166 -6 26 26 c31 31 34 75 7 108 -18 23 -27 24 -178 30 -178 7 -205 13 -390
80 -213 78 -223 79 -882 78 -389 -1 -587 -5 -611 -12z"/>
<path d="M2115 3107 c-104 -35 -183 -101 -228 -192 -107 -217 -25 -478 237
-752 138 -145 379 -323 436 -323 29 0 151 76 265 165 164 128 336 333 400 479
86 195 67 385 -53 518 -162 179 -425 146 -573 -71 -19 -28 -36 -50 -39 -50 -3
0 -20 22 -39 50 -44 65 -109 122 -178 155 -64 32 -167 41 -228 21z m160 -166
c65 -30 124 -101 180 -213 57 -117 83 -140 133 -116 20 10 40 40 77 116 58
117 125 193 192 218 87 34 177 -5 229 -99 25 -46 29 -62 28 -132 0 -59 -6 -95
-23 -138 -36 -92 -133 -228 -235 -329 -93 -93 -268 -228 -296 -228 -27 0 -200
133 -294 225 -101 100 -201 239 -237 332 -33 83 -33 201 0 262 56 107 151 146
246 102z"/>
<path d="M4004 2786 c-87 -28 -148 -100 -160 -189 l-7 -47 -48 6 c-67 9 -130
-11 -183 -57 -83 -73 -80 -57 -86 -553 l-5 -439 -63 81 c-101 131 -161 172
-251 172 -64 0 -114 -23 -166 -75 -70 -69 -92 -152 -63 -236 11 -33 290 -480
423 -679 35 -52 96 -131 135 -174 99 -111 150 -229 150 -347 0 -80 82 -118
137 -63 25 25 26 29 19 111 -12 156 -60 256 -202 423 -97 114 -514 765 -514
803 0 38 40 77 80 77 38 0 44 -6 198 -197 111 -139 122 -156 122 -193 0 -51
34 -90 80 -90 19 0 40 9 55 25 l25 24 0 591 0 591 25 24 c15 16 36 25 55 25
19 0 40 -9 55 -25 l25 -24 0 -391 0 -391 25 -24 c32 -33 78 -33 110 0 l25 24
0 511 0 511 25 24 c15 16 36 25 55 25 19 0 40 -9 55 -25 l25 -24 0 -511 0
-511 25 -24 c32 -33 78 -33 110 0 l25 24 0 431 0 431 25 24 c15 16 36 25 55
25 19 0 40 -9 55 -25 l25 -24 0 -431 0 -431 25 -24 c15 -16 36 -25 55 -25 19
0 40 9 55 25 l25 24 0 311 0 311 25 24 c32 33 78 33 111 0 l25 -25 -4 -598
c-4 -665 3 -601 -82 -830 -56 -154 -75 -259 -75 -424 0 -124 1 -130 25 -153
31 -32 78 -33 109 -2 22 22 24 33 29 183 5 172 9 187 95 434 22 63 45 150 51
193 16 115 15 1186 -1 1241 -8 26 -31 60 -63 92 -59 59 -117 80 -195 70 -47
-6 -50 -5 -50 15 0 82 -85 193 -166 217 -50 14 -104 15 -138 2 -21 -8 -26 -6
-32 13 -14 44 -59 99 -101 124 -52 30 -139 39 -199 19z"/>
<path d="M1445 2148 c-36 -13 -122 -66 -259 -157 -56 -37 -184 -120 -286 -184
-102 -64 -234 -158 -295 -208 -142 -120 -231 -159 -357 -159 -79 0 -116 -82
-62 -137 25 -25 29 -26 105 -20 150 12 281 71 414 187 136 120 770 530 818
530 38 0 77 -40 77 -80 0 -38 -6 -44 -197 -198 -139 -111 -156 -122 -193 -122
-80 0 -119 -82 -65 -135 l24 -25 591 0 591 0 24 -25 c33 -32 33 -78 0 -110
l-24 -25 -391 0 -391 0 -24 -25 c-33 -32 -33 -78 0 -110 l24 -25 511 0 511 0
24 -25 c33 -32 33 -78 0 -110 l-24 -25 -511 0 -511 0 -24 -25 c-33 -32 -33
-78 0 -110 l24 -25 431 0 431 0 24 -25 c33 -32 33 -78 0 -110 l-24 -25 -431 0
-431 0 -24 -25 c-33 -32 -33 -78 0 -110 l24 -25 311 0 311 0 24 -25 c33 -32
33 -78 0 -110 l-24 -25 -563 0 c-638 1 -642 1 -838 75 -179 67 -224 76 -412
82 l-166 6 -26 -26 c-34 -34 -34 -79 -1 -112 23 -24 30 -25 149 -25 152 0 241
-16 382 -70 237 -89 183 -84 864 -88 463 -2 616 0 650 9 31 9 61 29 96 63 59
60 80 118 70 196 -6 47 -5 50 15 50 82 0 193 85 217 166 14 50 15 104 2 138
-8 21 -6 26 13 32 72 23 141 105 153 181 20 136 -70 262 -199 279 l-47 7 6 48
c9 67 -11 130 -57 183 -73 83 -57 80 -553 86 l-439 5 81 63 c97 75 145 129
160 181 28 90 7 166 -63 236 -69 70 -157 93 -240 63z"/>
</g>
</svg>
