<?xml version="1.0" standalone="no"?>
<!DOCTYPE svg PUBLIC "-//W3C//DTD SVG 20010904//EN"
 "http://www.w3.org/TR/2001/REC-SVG-20010904/DTD/svg10.dtd">
<svg version="1.0" xmlns="http://www.w3.org/2000/svg"
 width="512.000000pt" height="512.000000pt" viewBox="0 0 512.000000 512.000000"
 preserveAspectRatio="xMidYMid meet">

<g transform="translate(0.000000,512.000000) scale(0.100000,-0.100000)"
fill="#000000" stroke="none">
<path d="M2501 5025 c-110 -24 -226 -89 -311 -175 -254 -253 -253 -647 2 -902
l76 -76 -91 -45 c-109 -52 -227 -143 -288 -221 l-44 -56 -5 147 c-6 144 -7
150 -40 211 -37 70 -68 100 -144 140 l-51 27 -645 0 -645 0 -50 -25 c-64 -31
-124 -92 -155 -155 -19 -41 -24 -66 -24 -135 -1 -78 2 -90 33 -148 38 -70 69
-100 145 -140 l51 -27 443 -3 442 -3 -2 -420 -3 -420 -75 -25 c-186 -63 -339
-156 -484 -294 -269 -258 -411 -611 -392 -980 16 -330 139 -606 375 -841 235
-236 511 -359 841 -375 349 -18 686 108 939 351 206 197 322 413 381 708 l11
57 155 0 c116 0 154 -3 154 -12 0 -7 -12 -86 -26 -175 l-27 -163 -51 -29 c-67
-38 -121 -98 -160 -180 -28 -60 -31 -75 -31 -162 0 -90 2 -99 37 -171 45 -91
103 -147 196 -191 61 -29 76 -32 162 -32 86 0 101 3 161 31 36 18 88 52 114
78 l48 46 708 2 c697 3 708 3 735 24 64 47 69 63 69 213 0 134 -1 138 -27 173
l-28 36 28 59 c23 48 27 71 26 138 0 66 -5 89 -26 131 -39 75 -70 107 -140
145 l-63 34 -175 3 -175 4 -144 406 c-79 224 -159 439 -177 478 -61 129 -182
217 -321 231 l-53 6 0 55 c0 79 -18 127 -67 182 -52 57 -108 80 -200 80 -35 0
-63 3 -63 6 0 33 -74 587 -86 644 -21 100 -99 259 -168 342 -52 62 -138 134
-207 175 -16 10 -29 20 -28 23 0 3 32 28 72 55 264 185 344 553 180 835 -139
238 -423 363 -692 305z m254 -160 c237 -62 393 -291 358 -529 -28 -194 -168
-351 -358 -401 -250 -65 -513 94 -580 350 -89 342 238 669 580 580z m-1149
-971 c15 -11 37 -33 48 -48 21 -27 21 -39 24 -619 l2 -592 -160 0 -160 0 0
483 0 482 -495 0 c-542 0 -538 0 -588 59 -48 57 -48 145 0 202 51 60 32 59
695 56 595 -2 607 -2 634 -23z m1089 -149 c197 -41 385 -198 460 -384 31 -76
40 -127 75 -411 16 -135 32 -260 35 -277 l6 -33 -476 0 -476 0 3 258 c3 237 5
261 26 312 19 48 58 115 97 167 7 9 -4 26 -40 63 -27 27 -54 50 -61 50 -16 0
-86 -93 -117 -155 -62 -124 -61 -112 -67 -697 -5 -522 -6 -537 -26 -564 -39
-53 -71 -69 -134 -69 -63 0 -95 16 -134 69 -21 27 -21 38 -21 564 l0 537 27
80 c15 44 44 109 65 145 47 80 178 213 256 259 152 89 336 121 502 86z m-1067
-1271 l52 -7 0 -76 0 -76 -152 0 c-168 -1 -233 -12 -367 -66 -117 -47 -217
-114 -317 -213 -133 -134 -215 -280 -261 -462 -24 -95 -24 -333 0 -428 46
-182 128 -328 261 -462 134 -133 280 -215 462 -261 95 -24 333 -24 428 0 185
46 324 125 461 262 178 179 266 372 282 621 13 215 -55 451 -178 613 l-39 52
17 32 c9 18 24 56 32 86 l16 54 65 -82 c360 -453 326 -1085 -80 -1491 -333
-332 -838 -423 -1256 -226 -460 218 -715 690 -639 1186 72 475 453 860 925
935 95 15 208 18 288 9z m1947 -19 c24 -23 25 -31 25 -135 0 -104 -1 -112 -25
-135 l-24 -25 -513 0 -513 0 -103 101 -102 101 0 59 0 59 615 0 616 0 24 -25z
m-2139 -780 c-2 -5 -20 -16 -41 -24 l-38 -13 -168 168 c-93 93 -169 171 -169
174 0 3 30 25 67 50 79 52 192 97 283 114 l65 12 3 -235 c1 -130 1 -240 -2
-246z m2417 471 c57 -21 105 -62 131 -114 12 -26 99 -259 191 -519 l168 -472
218 -3 c202 -3 220 -5 245 -24 53 -39 69 -71 69 -134 0 -63 -16 -95 -69 -134
-26 -20 -43 -21 -339 -24 -196 -2 -325 1 -347 7 -72 21 -80 36 -260 542 -94
261 -178 485 -188 498 -10 14 -31 34 -46 45 -27 20 -41 21 -474 24 l-447 3
-37 80 -37 79 461 0 c324 0 472 3 500 12 48 14 121 76 138 118 11 26 18 30 49
30 20 -1 53 -7 74 -14z m-2187 -4 c7 -4 17 -27 24 -52 26 -95 86 -172 169
-215 l41 -20 -109 -109 -109 -109 -39 15 -38 16 -3 241 -2 241 27 0 c16 0 33
-4 39 -8z m-592 -451 l169 -169 -15 -39 -16 -38 -245 -3 -245 -2 13 67 c14 70
44 163 66 205 20 39 93 148 99 148 3 0 81 -76 174 -169z m1108 116 c66 -98 99
-181 123 -300 l13 -67 -245 2 -245 3 -16 38 -15 39 169 169 c93 93 172 169
175 169 3 0 22 -24 41 -53z m1338 -183 c0 -31 -5 -75 -12 -98 -16 -55 -99
-138 -154 -154 -28 -8 -125 -12 -296 -12 l-255 0 -7 88 c-4 48 -14 119 -22
157 -7 39 -14 71 -14 73 0 1 171 2 380 2 l380 0 0 -56z m-1937 -118 c103 -43
128 -177 48 -257 -65 -65 -157 -65 -222 0 -124 123 13 325 174 257z m2160
-384 c54 -152 109 -305 122 -339 l24 -63 -179 0 c-137 0 -180 3 -180 13 0 29
105 667 110 667 3 0 49 -125 103 -278z m-2515 115 l15 -39 -171 -171 c-195
-195 -169 -188 -242 -67 -45 75 -76 156 -95 253 l-13 67 245 -2 245 -3 16 -38z
m1077 -24 c-17 -89 -56 -191 -100 -262 -68 -110 -43 -118 -235 74 -94 93 -170
173 -170 176 0 4 7 23 15 43 l15 36 244 0 244 0 -13 -67z m1134 -5 c0 -13 -13
-99 -28 -193 -21 -130 -31 -170 -42 -168 -8 1 -46 9 -85 19 l-70 17 26 156 26
156 49 7 c28 4 64 12 80 17 44 14 45 13 44 -11z m-2035 -143 l36 -15 0 -244 0
-244 -67 13 c-89 17 -191 56 -262 100 -110 68 -118 43 74 235 93 94 173 170
176 170 4 0 23 -7 43 -15z m451 -155 c192 -192 184 -167 74 -235 -71 -44 -173
-83 -261 -100 l-68 -13 0 244 0 244 33 14 c17 8 37 15 42 15 6 1 87 -75 180
-169z m1419 -202 c86 -26 166 -136 166 -228 0 -124 -116 -240 -240 -240 -124
0 -240 116 -240 240 0 63 23 114 75 165 70 71 145 90 239 63z m1606 -228 l0
-80 -642 0 -643 0 0 80 0 80 643 0 642 0 0 -80z"/>
</g>
</svg>
